<svg width="66" height="66" viewBox="0 0 66 66" fill="none" xmlns="http://www.w3.org/2000/svg">
<path d="M28.5429 0.310546C27.1073 0.679687 25.7265 1.89648 25.2343 3.23633C24.3456 5.58789 25.3573 8.11719 27.6405 9.23828C28.4472 9.63477 28.6796 9.68945 29.6503 9.68945C30.621 9.68945 30.8534 9.63477 31.6601 9.23828C34.5858 7.80273 35.2968 4.15234 33.123 1.75977C32.2206 0.789062 31.2499 0.324218 29.9374 0.255858C29.4042 0.214843 28.7753 0.242187 28.5429 0.310546Z" fill="#0C3944"/>
<path d="M54.3827 0.310546C53.5077 0.529296 52.6737 1.04883 52.0175 1.77344C49.8436 4.15234 50.5546 7.80273 53.4804 9.23828C54.287 9.63477 54.5194 9.68945 55.4901 9.68945C56.4608 9.68945 56.6933 9.63477 57.4999 9.23828C60.4257 7.80273 61.1366 4.15234 58.9628 1.75977C58.0604 0.789062 57.0897 0.324218 55.7772 0.255858C55.244 0.214843 54.6151 0.242187 54.3827 0.310546Z" fill="#0C3944"/>
<path d="M41.4355 3.87891C40.082 4.2207 38.8242 5.28711 38.2227 6.58594C37.9219 7.24219 37.8535 7.55664 37.8535 8.52734C37.8535 9.94922 38.25 10.9063 39.2207 11.877C40.1914 12.8477 41.1484 13.2441 42.5703 13.2441C43.9922 13.2441 44.9492 12.8477 45.9199 11.877C46.8906 10.9063 47.2871 9.94922 47.2871 8.52734C47.2871 7.55664 47.2188 7.24219 46.918 6.58594C46.4668 5.60156 45.5098 4.64453 44.5527 4.20703C43.7188 3.82422 42.2695 3.67383 41.4355 3.87891Z" fill="#0C3944"/>
<path d="M27.4764 12.7109C23.8261 13.5176 20.8593 16.293 19.7518 19.916C19.3827 21.1465 19.246 22.8145 19.4647 23.4844C20.121 25.4941 23.7714 26.875 28.7616 27.0117L30.3339 27.0527L30.4296 25.5488C30.5253 23.8125 30.8807 22.4316 31.6054 20.9824C32.535 19.0684 34.121 17.291 35.871 16.1699C36.3905 15.8418 36.8007 15.5 36.7733 15.4316C36.705 15.1582 35.119 13.9961 34.1757 13.5312C33.6425 13.2715 32.8358 12.957 32.3847 12.834C31.1952 12.5059 28.6522 12.4512 27.4764 12.7109Z" fill="#0C3944"/>
<path d="M53.3713 12.6973C52.3049 12.9297 51.2521 13.3398 50.2267 13.9414C49.4338 14.4063 48.1896 15.4316 48.3127 15.5273C48.3537 15.5547 48.7502 15.8145 49.2014 16.1016C50.2678 16.7988 51.8947 18.3711 52.5783 19.3691C53.9181 21.3379 54.5744 23.2383 54.7111 25.5488L54.8068 27.0527L56.3791 27.0117C61.3693 26.875 65.0197 25.4941 65.676 23.4844C65.8947 22.8145 65.758 21.1465 65.3889 19.916C64.4728 16.9219 62.0803 14.2832 59.3049 13.1895C57.5822 12.5195 55.176 12.3145 53.3713 12.6973Z" fill="#0C3944"/>
<path d="M40.5195 16.2517C35.7891 17.3181 32.3164 21.406 32.3164 25.9314C32.3164 27.2986 32.6445 27.9412 33.7109 28.6658C38.209 31.742 50.4727 31.0447 52.4824 27.5994C53.3848 26.0681 52.5371 22.4451 50.7051 20.0252C49.4746 18.4119 47.2734 16.949 45.2363 16.3885C44.0742 16.074 41.627 16.0056 40.5195 16.2517Z" fill="#0C3944"/>
<path d="M22.6775 39.0291C21.6248 39.2615 20.4626 39.7537 16.9353 41.449C14.9802 42.3787 13.0388 43.3083 12.6287 43.4861C12.2185 43.6775 11.863 43.8416 11.8357 43.8689C11.7947 43.9099 17.031 56.5837 17.2634 57.0212C17.3181 57.1443 17.7693 56.9802 18.781 56.5017C20.49 55.6814 21.7888 55.3669 22.9509 55.5037C23.3884 55.5447 26.1638 56.2966 29.1033 57.158C32.2205 58.0603 34.8044 58.7439 35.324 58.7986C37.197 58.9626 38.906 58.4978 44.5935 56.324C55.1619 52.2634 61.9568 49.6248 62.3943 49.406C63.0642 49.0642 64.1169 47.9021 64.4724 47.1228C64.6912 46.6443 64.7732 46.1794 64.7732 45.4412C64.7869 44.1833 64.4724 43.5818 63.5154 43.0076C62.9412 42.6794 62.7087 42.6384 61.3552 42.5974C59.3455 42.5291 58.908 42.6248 51.2517 44.8669L44.8259 46.7537L44.7166 47.6287C44.4978 49.5974 43.1716 51.3201 41.3806 52.0037C39.863 52.5779 39.3025 52.4958 32.3298 50.6091C26.738 49.0915 26.0955 48.8865 25.8494 48.572C25.5076 48.1072 25.6716 47.5056 26.2048 47.2458C26.533 47.0818 27.1755 47.2322 32.7537 48.7361C39.1794 50.4724 39.863 50.5955 40.7927 50.199C42.0642 49.6658 42.7615 48.5994 42.7615 47.2185C42.7615 45.9744 42.1599 44.9216 41.1345 44.3748C40.9158 44.2654 38.6189 43.5955 36.0349 42.8982C31.5095 41.6814 31.3181 41.6267 30.2927 40.9568C29.0076 40.1091 27.4763 39.3845 26.3552 39.0974C25.4392 38.865 23.5662 38.824 22.6775 39.0291Z" fill="#0C3944"/>
<path d="M3.87885 41.6268C2.40228 42.2421 1.04877 42.8847 0.843691 43.0897C0.378847 43.5136 0.132753 44.2245 0.228457 44.8124C0.351503 45.537 8.48627 64.869 8.81439 65.2108C9.19721 65.621 9.93549 65.8671 10.496 65.7714C11.1796 65.662 15.9511 63.6386 16.2929 63.3104C16.7441 62.9003 17.0038 62.3534 17.0038 61.8475C17.0038 61.3964 8.99213 41.955 8.54096 41.3397C8.24017 40.9022 7.48822 40.5194 6.95502 40.5194C6.73627 40.5194 5.34174 41.0253 3.87885 41.6268Z" fill="#0C3944"/>
</svg>
