<svg width="70" height="70" viewBox="0 0 70 70" fill="none" xmlns="http://www.w3.org/2000/svg">
<path d="M32.4707 4.0332C29.9961 4.41602 27.6719 5.29102 25.6348 6.61719C24.1309 7.58789 21.6426 10.0762 20.8496 11.3887L20.3027 12.291L13.2617 12.3047C6.2207 12.3047 6.20703 12.3047 5.60547 12.6055C5.1543 12.8379 4.9082 13.084 4.68945 13.5352C4.38867 14.123 4.375 14.2734 4.375 17.7734C4.375 21.834 4.45703 22.2031 5.3457 22.8457L5.81055 23.1738H35.0273H64.2441L64.627 22.8867C64.832 22.7363 65.1465 22.3945 65.3242 22.1484C65.625 21.7109 65.625 21.6152 65.625 17.8145C65.625 14.1914 65.6113 13.9043 65.3516 13.3984C65.1738 13.043 64.8867 12.7559 64.5312 12.5781C64.0117 12.3184 63.7383 12.3047 56.8887 12.3047H49.793L49 11.1152C48.043 9.69336 46.375 7.9707 44.9805 6.98633C41.4258 4.48438 36.6816 3.36328 32.4707 4.0332Z" fill="#0C3944"/>
<path d="M8.75 46.2383C8.75 64.1211 8.76367 64.9004 9.00977 65.4336C9.14648 65.748 9.47461 66.1445 9.7207 66.3223L10.1855 66.6504H19.7148C29.1621 66.6504 29.2441 66.6504 29.627 66.3633C29.832 66.2129 30.1465 65.8711 30.3242 65.625C30.6113 65.1875 30.625 65.0645 30.625 62.125V59.0625H35H39.375V61.9746C39.375 64.7227 39.3887 64.9141 39.6895 65.4883C39.8809 65.8984 40.1816 66.2129 40.5371 66.4043L41.084 66.7188L50.4766 66.6777C59.7598 66.6504 59.8691 66.6504 60.252 66.3633C60.457 66.2129 60.7715 65.8711 60.9492 65.625L61.25 65.1738V46.4023V27.6172H35H8.75V46.2383ZM24.4863 33.0176C24.7051 33.1406 24.9512 33.3867 25.0195 33.5781C25.1016 33.7695 25.1562 35.2734 25.1562 36.9277V39.9492L24.7598 40.3457L24.3633 40.7422H21C18.8398 40.7422 17.5273 40.6875 17.3223 40.5918C16.666 40.291 16.6113 39.9766 16.6113 36.6816V33.6055L17.0625 33.209L17.5 32.8125H20.7949C23.4883 32.8125 24.1445 32.8535 24.4863 33.0176ZM38.8555 33.209L39.3066 33.6055V36.6816C39.3066 39.9766 39.252 40.291 38.5957 40.5918C38.3906 40.6875 37.0781 40.7422 34.918 40.7422H31.5547L31.1582 40.3457L30.7617 39.9492V36.8184C30.7617 33.4688 30.8027 33.2227 31.5 32.9492C31.6504 32.8809 33.2773 32.8262 35.0957 32.8262L38.418 32.8125L38.8555 33.209ZM52.7598 33.0176C53.416 33.3457 53.4707 33.7148 53.4297 37.0371L53.3887 40.0859L53.0059 40.4141C52.623 40.7422 52.623 40.7422 49.1641 40.7422C44.5156 40.7422 44.8027 41.0293 44.8711 36.3945L44.9121 33.6055L45.3633 33.209L45.8008 32.8125H49.0957C51.6934 32.8125 52.459 32.8535 52.7598 33.0176ZM24.8281 45.4316C25.1562 45.8145 25.1562 45.8281 25.1562 48.959V52.1172L24.7598 52.5137L24.3633 52.9102H21C18.8398 52.9102 17.5273 52.8555 17.3223 52.7598C16.666 52.459 16.6113 52.1445 16.6113 48.8496V45.7734L17.0625 45.377L17.5137 44.9668L21.0137 45.0078L24.5 45.0488L24.8281 45.4316ZM38.8555 45.377L39.3066 45.7734V48.9453V52.1172L38.8555 52.5137L38.418 52.9102H34.9863H31.5547L31.1582 52.5137L30.7617 52.1172V48.9863C30.7617 45.6367 30.8027 45.3906 31.5 45.1172C31.6504 45.0488 33.2773 44.9941 35.0957 44.9941L38.418 44.9805L38.8555 45.377ZM52.7598 45.1855C53.416 45.5137 53.4707 45.8828 53.4297 49.2051L53.3887 52.2539L53.0059 52.582C52.623 52.9102 52.6094 52.9102 49.2734 52.9102C45.5547 52.9102 45.2676 52.8555 44.9941 52.0762C44.8984 51.8164 44.8438 50.5586 44.8438 48.918C44.8438 45.9785 44.9395 45.4453 45.5684 45.1445C45.7598 45.0488 47.127 44.9941 49.123 44.9941C51.7207 44.9805 52.459 45.0215 52.7598 45.1855Z" fill="#0C3944"/>
</svg>
