<svg width="19" height="19" viewBox="0 0 19 19" fill="none" xmlns="http://www.w3.org/2000/svg">
<g clip-path="url(#clip0_1_989)">
<path d="M18.21 17.0874H18.3897L18.0454 16.5665C18.2559 16.5665 18.3676 16.4327 18.3692 16.2689C18.3692 16.2625 18.3692 16.2554 18.3684 16.2491C18.3684 16.0258 18.2338 15.9189 17.9575 15.9189H17.511V17.0874H17.6788V16.5784H17.8854L18.21 17.0874ZM17.8736 16.4462H17.6788V16.0512H17.9258C18.0533 16.0512 18.1989 16.0717 18.1989 16.2388C18.1989 16.4304 18.0517 16.4462 17.8728 16.4462" fill="#1EBBFF"/>
<path d="M13.6887 15.0995H11.3082V11.3715C11.3082 10.4825 11.2923 9.3385 10.07 9.3385C8.83025 9.3385 8.64025 10.3067 8.64025 11.3074V15.0995H6.2605V7.43296H8.54604V8.48034H8.57771C9.044 7.68392 9.91008 7.20813 10.8324 7.24217C13.2454 7.24217 13.6895 8.82946 13.6895 10.8933L13.6887 15.0995ZM3.57437 6.38479C2.81121 6.38479 2.19292 5.7665 2.19292 5.00334C2.19292 4.24017 2.81121 3.62188 3.57437 3.62188C4.33754 3.62188 4.95583 4.24017 4.95583 5.00334C4.95583 5.7665 4.33754 6.38479 3.57437 6.38479ZM4.76425 15.0995H2.38133V7.43296H4.76425V15.0995ZM14.8754 1.41154H1.18512C0.538333 1.40442 0.00791667 1.92296 0 2.56975V16.3163C0.00791667 16.9638 0.538333 17.4824 1.18512 17.4753H14.8754C15.5238 17.4832 16.0566 16.9646 16.0653 16.3163V2.56896C16.0558 1.92059 15.523 1.40204 14.8754 1.41075" fill="#1EBBFF"/>
<path d="M17.894 15.3987C17.2891 15.4042 16.8031 15.8998 16.8094 16.5046C16.8149 17.1095 17.3105 17.5956 17.9153 17.5892C18.5202 17.5837 19.0063 17.0881 18.9999 16.4833C18.9944 15.8863 18.5115 15.4042 17.9153 15.3987H17.894ZM17.9193 17.4633C17.3889 17.4721 16.9266 17.0501 16.9178 16.5197C16.9091 15.9893 17.3319 15.5523 17.8623 15.5436C18.3927 15.5348 18.8297 15.9576 18.8384 16.488C18.8384 16.4936 18.8384 16.4983 18.8384 16.5038C18.8495 17.0224 18.4378 17.4523 17.9193 17.4633H17.8948H17.9193Z" fill="#1EBBFF"/>
</g>
<defs>
<clipPath id="clip0_1_989">
<rect width="19" height="19" fill="white"/>
</clipPath>
</defs>
</svg>
