<svg width="373" height="85" viewBox="0 0 373 85" fill="none" xmlns="http://www.w3.org/2000/svg">
<path d="M112.215 59.5968C111.67 59.502 111.299 59.1886 110.877 58.9699C106.495 56.6738 102.105 54.3777 97.7219 52.0816C94.2258 50.2447 90.7225 48.4151 87.2338 46.549C86.4779 46.1408 85.831 46.17 85.0606 46.549C81.6663 48.2328 78.2357 49.8583 74.8268 51.513C70.495 53.6196 66.1776 55.748 61.8457 57.8546C60.5665 58.4815 59.2728 59.0792 57.79 59.7863C58.1026 59.2542 58.2988 58.8824 58.5314 58.5398C60.3848 55.7335 62.26 52.9344 64.1062 50.1207C65.7052 47.6861 67.2969 45.2515 68.8596 42.795C69.1431 42.3577 69.4483 42.139 69.9571 42.1682C72.1521 42.2775 74.3544 42.3212 76.5494 42.5181C77.3199 42.5909 78.0976 42.6128 78.9334 42.6638C78.7953 42.2483 78.5046 42.1755 78.2793 42.0588C74.9068 40.3167 71.5634 38.5308 68.1546 36.8689C65.1964 35.4256 62.369 33.7199 59.3382 32.4224C59.0765 32.3131 58.6986 32.2329 58.7276 31.8684C58.7567 31.4967 59.1565 31.5113 59.4181 31.4311C63.2558 30.3013 67.0135 28.9455 70.8075 27.699C72.2321 27.2325 73.6639 26.7805 75.0958 26.3432C76.0334 26.0589 76.6439 25.4976 77.1309 24.6011C80.06 19.1779 83.0618 13.7911 86.0272 8.38247C87.4009 5.86768 88.7456 3.33102 90.1047 0.808933C90.2719 0.495495 90.3882 -0.0366203 90.7298 -0.000174077C91.1223 0.0362722 90.9551 0.568388 91.006 0.881826C91.9799 6.23214 92.9248 11.5897 93.8915 16.9401C94.0005 17.5305 93.8188 17.946 93.3536 18.3031C92.2998 19.0977 91.2604 19.9068 90.301 20.8106C90.192 20.9127 90.0393 20.9929 90.0102 21.3938C95.8031 19.5861 101.443 17.618 107.12 15.7738C112.818 13.9223 118.495 11.9907 124.193 10.1246C129.877 8.25855 135.568 6.42166 141.31 4.67953C140.67 5.08044 140.081 5.54695 139.442 5.91141C136.091 7.82849 132.871 9.96424 129.571 11.9761C124.469 15.0813 119.41 18.2667 114.33 21.4157C109.097 24.6594 103.856 27.8885 98.6231 31.1395C96.4063 32.5172 94.1168 33.7782 91.9654 35.2725C91.2822 35.7463 91.2967 35.8338 91.8564 36.468C94.3567 39.267 96.8424 42.0734 99.3354 44.8725C101.341 47.1321 103.34 49.3991 105.368 51.6442C107.541 54.0569 109.591 56.5863 111.888 58.897C112.055 59.0647 112.244 59.2542 112.222 59.6041L112.215 59.5968ZM108.203 20.3514C108.174 20.2567 108.137 20.1619 108.108 20.0671C95.2361 24.2002 82.3931 28.4352 69.3684 32.7213C77.16 36.6794 84.7626 40.5427 92.3579 44.406C92.3942 44.3404 92.4379 44.282 92.4742 44.2164C92.4379 44.1363 92.4233 44.0488 92.3724 43.9832C90.003 41.2862 87.6335 38.5891 85.2495 35.8994C84.7553 35.3381 84.7553 35.2215 85.3149 34.8716C87.3937 33.5741 89.4724 32.2694 91.5438 30.9573C95.6868 28.3259 99.8224 25.6944 103.965 23.0557C105.375 22.1592 106.793 21.2553 108.203 20.3514Z" fill="#C8A128"/>
<path d="M132.137 48.7364C132.093 50.9523 132.195 53.5181 132.406 56.0839C132.45 56.6379 132.61 57.1555 132.82 57.6584C133.017 58.1322 133.351 58.4384 133.86 58.555C134.616 58.7227 135.379 58.8101 136.149 58.832C136.418 58.8393 136.694 58.8393 136.963 58.8903C137.247 58.9413 137.494 59.1163 137.479 59.437C137.465 59.7869 137.152 59.8525 136.876 59.8525C134.674 59.8598 132.471 59.9254 130.269 59.7869C129.266 59.7213 128.278 59.7723 127.282 59.816C125.741 59.8889 124.193 59.8671 122.652 59.8744C122.448 59.8744 122.238 59.8598 122.049 59.8015C121.802 59.7286 121.693 59.5391 121.7 59.2766C121.707 58.9996 121.911 58.9632 122.121 58.934C122.797 58.8539 123.473 58.7664 124.142 58.6862C124.832 58.5987 125.269 58.176 125.45 57.5491C125.697 56.6744 125.894 55.7851 125.923 54.8666C126.184 46.0539 126.032 37.2412 126.046 28.4285C126.046 27.3133 125.981 26.198 125.915 25.0827C125.806 23.2021 124.956 22.3857 123.015 22.2764C122.587 22.2545 122.15 22.2618 121.722 22.2618C121.315 22.2618 120.966 22.1525 120.958 21.686C120.958 21.1903 121.366 21.2267 121.707 21.2194C124.905 21.1976 128.103 21.4746 131.309 21.3579C133.46 21.2778 135.619 21.1465 137.777 21.234C140.343 21.3361 142.851 21.7588 145.067 23.1511C147.597 24.7401 148.869 27.0654 149.058 30.0613C149.283 33.6622 147.706 36.4831 145.402 39.0198C144.624 39.8799 143.803 40.7109 142.865 41.3961C142.378 41.7533 142.414 42.023 142.749 42.4312C144.202 44.2389 145.62 46.0758 147.102 47.8617C149.363 50.5951 151.558 53.3869 154.058 55.9163C155.512 57.3887 157.213 58.4384 159.306 58.7372C159.778 58.8028 160.251 58.8539 160.723 58.9195C160.927 58.9486 161.145 58.9778 161.152 59.2621C161.152 59.4953 161.014 59.6484 160.818 59.7359C160.694 59.7942 160.556 59.8452 160.425 59.8452C157.816 59.8452 155.207 59.991 152.605 59.7359C151.078 59.5901 149.734 58.9195 148.534 57.9719C146.601 56.4411 145.162 54.473 143.73 52.5049C142.073 50.2234 140.423 47.9273 138.867 45.5801C138.104 44.4211 137.247 43.787 135.808 43.9765C134.935 44.0858 134.041 43.9765 133.155 43.9838C132.159 43.9838 132.159 43.9838 132.159 44.9533C132.159 46.0904 132.159 47.2275 132.159 48.7291L132.137 48.7364ZM132.137 32.3939C132.137 34.8795 132.137 37.3578 132.137 39.8435C132.137 40.8057 132.224 40.915 133.169 41.1337C134.39 41.418 135.64 41.4253 136.883 41.4836C139.631 41.6075 141.426 39.7925 142.24 37.6494C142.989 35.6813 143.061 33.6403 142.916 31.592C142.778 29.6312 142.233 27.7871 140.903 26.2563C138.788 23.829 136.033 23.4864 133.06 23.8509C132.355 23.9383 132.108 24.2299 132.115 24.9515C132.152 27.4299 132.13 29.9155 132.13 32.4012L132.137 32.3939Z" fill="white"/>
<path d="M277.197 60.5522C273.25 60.6907 269.427 59.6046 265.975 57.2501C262.442 54.8374 260.131 51.477 258.801 47.468C256.969 41.9354 257.325 36.483 259.986 31.3004C262.74 25.9355 267.036 22.3492 272.989 21.0808C279.021 19.7906 284.785 20.556 290.004 24.0622C294.183 26.8685 296.705 30.812 297.504 35.7833C298.711 43.2329 296.887 49.837 291.464 55.1727C287.612 58.9631 282.837 60.6979 277.197 60.5595V60.5522ZM262.646 39.5591C262.668 42.7081 263.234 46.0976 264.739 49.283C267.755 55.6756 273.316 59.0214 280.242 58.5112C285.795 58.103 290.396 54.1959 291.879 48.6998C293.143 44.0128 293.274 39.2675 292.046 34.5368C291.283 31.5847 290.004 28.8803 287.816 26.7081C283.811 22.7355 278.963 21.6275 273.57 22.8011C268.642 23.8726 265.393 26.905 263.765 31.7013C262.936 34.1432 262.66 36.6653 262.639 39.5737L262.646 39.5591Z" fill="white"/>
<path d="M228.485 47.3651C228.514 50.2298 228.543 53.1018 228.747 55.9592C228.761 56.1195 228.761 56.2799 228.79 56.433C229.125 58.4302 229.641 58.8822 231.669 58.9478C232.148 58.9623 232.621 59.0061 233.086 59.13C233.26 59.1737 233.478 59.2466 233.486 59.4507C233.493 59.7058 233.239 59.7715 233.05 59.8006C232.577 59.8589 232.098 59.9099 231.625 59.8954C229.881 59.8443 228.136 59.7277 226.392 59.7131C224.851 59.7058 223.31 59.8152 221.769 59.8443C221.37 59.8516 220.73 59.9756 220.723 59.4143C220.723 58.9551 221.333 58.9842 221.733 58.9478C223.405 58.8166 223.608 58.6416 223.986 56.987C224.299 55.602 224.291 54.1733 224.291 52.7738C224.335 43.8007 224.313 34.8276 224.306 25.8545C224.306 25.2423 224.248 24.6227 224.153 24.0177C223.979 22.917 223.099 22.2609 221.66 22.1224C221.319 22.086 220.977 22.1079 220.643 22.0568C220.388 22.0204 220.032 22.0058 220.032 21.6414C220.032 21.2404 220.367 21.2113 220.672 21.2113C221.261 21.2113 221.857 21.1676 222.445 21.2186C225.396 21.4664 228.34 21.3352 231.291 21.2186C233.311 21.1311 235.332 21.2332 237.323 21.6268C240.892 22.3411 243.603 24.178 244.941 27.7133C245.587 29.4117 245.544 31.1538 245.202 32.896C244.643 35.7534 243.131 38.1151 241.212 40.2362C240.725 40.7757 240.231 41.3151 239.678 41.7889C239.271 42.1315 239.322 42.3793 239.613 42.7437C241.663 45.3241 243.698 47.9264 245.747 50.5068C247.019 52.1104 248.328 53.6849 249.709 55.1938C251.373 57.0015 253.285 58.4302 255.778 58.8603C256.49 58.9842 257.224 59.0061 257.943 59.079C258.169 59.1008 258.46 59.0935 258.481 59.3778C258.51 59.7058 258.191 59.735 257.958 59.8006C257.784 59.8516 257.602 59.8662 257.42 59.8589C255.429 59.8298 253.43 59.9245 251.438 59.7787C248.793 59.5819 246.808 58.2115 245.159 56.2289C242.491 53.0289 240.056 49.654 237.621 46.279C237.076 45.521 236.502 44.792 235.95 44.0339C235.71 43.7059 235.397 43.5747 235.019 43.5674C233.093 43.5237 231.16 43.4945 229.234 43.4362C228.711 43.4217 228.492 43.5966 228.507 44.1433C228.536 45.2148 228.514 46.2863 228.514 47.3506L228.485 47.3651ZM228.485 32.2982C228.485 34.937 228.5 37.583 228.471 40.2217C228.471 40.834 228.696 41.1401 229.263 41.2932C231.029 41.7524 232.832 41.9128 234.656 41.8763C237.447 41.8253 239.337 40.4914 240.267 37.8454C241.314 34.8714 241.306 31.8463 240.449 28.8504C239.591 25.8691 237.687 23.8864 234.583 23.2085C232.919 22.8441 231.247 22.9097 229.575 23.1429C228.594 23.2814 228.5 23.4345 228.5 24.4404C228.5 27.0573 228.5 29.6741 228.5 32.2982H228.485Z" fill="white"/>
<path d="M46.6987 38.874C46.6987 42.9706 46.6841 47.0744 46.6987 51.171C46.6987 52.6726 46.7568 54.1742 46.8368 55.6757C46.9676 58.0666 47.6944 58.7445 50.0712 58.8174C50.5945 58.832 51.1178 58.832 51.6338 58.8539C51.9682 58.8684 52.3025 58.9632 52.288 59.386C52.2734 59.7723 51.9391 59.8452 51.6411 59.8452C49.4388 59.8671 47.2365 59.9181 45.0343 59.7869C43.7187 59.7067 42.4104 59.7067 41.0949 59.7869C39.6485 59.8671 38.1948 59.8598 36.7412 59.8816C36.5377 59.8816 36.3269 59.8816 36.1524 59.7577C35.978 59.6411 35.8254 59.4953 35.8472 59.2621C35.869 58.9924 36.087 58.9705 36.2978 58.9486C36.9301 58.883 37.5625 58.8174 38.1876 58.7445C38.9871 58.657 39.4232 58.176 39.6703 57.4397C39.9683 56.5577 39.9392 55.6393 40.0264 54.7427C40.1427 53.591 40.1791 52.4247 40.1791 51.2657C40.1936 42.6134 40.1863 33.9611 40.1863 25.3087C40.1863 24.2663 40.1863 24.2591 39.1833 24.2809C36.5304 24.3392 33.8702 24.3757 31.2173 24.4777C29.9453 24.5215 28.6589 24.6454 27.7721 25.7752C27.3433 26.3219 27.0744 26.9415 26.8345 27.583C26.7255 27.8818 26.6237 28.2536 26.2167 28.188C25.7734 28.1224 25.8678 27.7069 25.8751 27.408C25.9333 25.644 26.4057 23.9529 26.7546 22.2326C27.1107 20.4905 27.118 20.5197 28.8188 20.957C30.1198 21.2923 31.4717 21.3434 32.8018 21.3506C40.6806 21.3798 48.5594 21.3798 56.4382 21.3506C57.4048 21.3506 58.3715 21.1393 59.3382 21.008C60.1668 20.8914 60.3194 20.9935 60.3049 21.8317C60.2685 23.8363 60.2177 25.8335 60.1668 27.8381C60.1668 27.9984 60.1377 28.1588 60.0868 28.3046C59.9996 28.5378 59.8833 28.793 59.5708 28.7565C59.3164 28.7274 59.1856 28.5306 59.1347 28.29C59.0765 28.0203 59.0039 27.7506 59.0039 27.4809C59.0184 26.4458 58.4515 25.7825 57.6229 25.2941C56.787 24.7985 55.8567 24.5579 54.9046 24.4704C52.3679 24.2372 49.824 24.3247 47.2801 24.2809C46.735 24.2736 46.6551 24.5433 46.6551 25.0026C46.6696 29.6239 46.6551 34.2453 46.6551 38.874C46.6551 38.874 46.6696 38.874 46.6769 38.874H46.6987Z" fill="white"/>
<path d="M204.681 50.4124C204.66 48.5901 204.71 46.52 204.58 44.4498C204.449 42.3869 203.758 41.6434 201.687 41.5487C201.389 41.5341 201.091 41.5487 200.807 41.4977C200.553 41.4539 200.306 41.3227 200.32 41.0166C200.335 40.6813 200.626 40.6521 200.873 40.6521C201.534 40.6521 202.188 40.6302 202.85 40.674C205.394 40.8198 207.93 40.8343 210.467 40.6594C211.034 40.623 211.601 40.6448 212.168 40.6594C212.371 40.6594 212.611 40.7031 212.655 40.9437C212.705 41.2134 212.487 41.3519 212.277 41.4393C212.131 41.4977 211.971 41.5268 211.819 41.5414C209.849 41.7309 209.231 42.4307 209.122 44.4061C208.941 47.7737 209.02 51.1413 208.999 54.509C208.999 55.216 208.955 55.9231 209.006 56.6229C209.086 57.6434 208.635 58.2265 207.719 58.6128C205.016 59.7572 202.196 60.3695 199.266 60.5445C195.894 60.7413 192.558 60.5226 189.294 59.5896C186.002 58.642 182.971 57.155 180.456 54.786C177.905 52.3878 176.284 49.3773 175.419 46.017C173.602 38.9246 174.932 32.459 179.671 26.8317C182.368 23.6244 186.002 21.9333 190.036 21.1096C194.499 20.1985 198.969 20.388 203.431 21.1752C205.176 21.4814 206.913 21.8167 208.679 21.926C209.188 21.9552 209.42 22.1666 209.348 22.706C209.02 25.0094 208.97 27.3274 208.97 29.6526C208.97 30.0681 209.064 30.695 208.548 30.7387C208.039 30.7825 208.097 30.1483 208.054 29.7693C207.69 26.2704 205.423 24.4845 202.348 23.5588C198.147 22.2905 193.837 22.0135 189.578 23.1506C184.243 24.5793 180.878 28.0781 179.722 33.5378C178.603 38.8298 179.112 43.976 181.634 48.8015C184.33 53.9623 188.677 56.9582 194.36 57.9787C196.883 58.4306 199.419 58.4233 201.934 57.8693C202.334 57.7819 202.726 57.6652 203.104 57.5122C204.332 57.0092 204.667 56.5062 204.674 55.1723C204.674 53.6707 204.674 52.1691 204.674 50.4197L204.681 50.4124Z" fill="white"/>
<path d="M8.3002 60.5514C5.78538 60.6316 3.43046 60.2963 1.17003 59.3341C0.341452 58.9842 0.0071123 58.423 -0.000155962 57.541C-0.0146925 55.2376 0.167014 52.9487 0.297843 50.6526C0.312379 50.4485 0.363257 50.2517 0.406867 50.0476C0.479549 49.7123 0.697597 49.5301 1.03194 49.5374C1.40262 49.5374 1.43169 49.8289 1.46803 50.1132C1.62793 51.6148 1.85325 53.0945 2.57281 54.4503C3.73573 56.659 5.62548 57.7597 8.03854 57.9856C9.39771 58.1095 10.7496 58.0439 12.0724 57.5774C14.8634 56.5934 16.3462 54.064 15.9028 51.1337C15.5539 48.8376 14.3256 47.0882 12.712 45.5647C10.7932 43.7497 8.56186 42.3137 6.58489 40.5643C4.48436 38.6983 2.75452 36.5698 1.76603 33.8873C-0.39991 28.0049 2.85627 22.7494 8.4383 21.1311C12.1306 20.0596 15.8592 20.4022 19.5297 21.3717C20.4091 21.6049 20.4455 21.7653 20.4091 22.6838C20.3292 24.5498 20.2856 26.4159 20.2347 28.2819C20.2274 28.6245 20.2056 28.9671 20.0893 29.2878C20.0094 29.5211 19.8495 29.6887 19.5951 29.6814C19.3262 29.6814 19.1881 29.4701 19.1444 29.2441C19.0718 28.8869 19.0863 28.5152 19.0064 28.1653C18.1705 24.4623 15.3795 22.7566 11.7599 22.9972C10.6697 23.0701 9.58668 23.2377 8.62 23.8063C6.06884 25.3006 5.44377 28.7047 7.25357 31.3215C8.35835 32.9106 9.85561 34.106 11.3601 35.2869C12.8429 36.4459 14.4128 37.5028 15.7938 38.8003C17.8289 40.7101 19.7332 42.7219 20.7071 45.4117C22.9239 51.5492 19.9876 57.8107 13.7369 59.859C11.9416 60.4494 10.1027 60.6097 8.30747 60.5441L8.3002 60.5514Z" fill="white"/>
<path d="M307.164 36.2129C307.164 33.2097 307.171 30.1992 307.164 27.1961C307.164 26.3068 307.106 25.4175 307.026 24.5355C306.881 22.9537 306.132 22.2831 304.424 22.1373C304.061 22.1082 303.697 22.1154 303.334 22.0863C303.079 22.0644 302.803 22.028 302.796 21.6927C302.796 21.3282 303.072 21.2407 303.356 21.248C304.468 21.2553 305.58 21.248 306.692 21.3063C308.552 21.4011 310.406 21.4303 312.266 21.2918C313.037 21.2334 313.807 21.248 314.578 21.2407C314.883 21.2407 315.217 21.2918 315.232 21.6781C315.246 22.0353 314.912 22.1009 314.643 22.1082C312.114 22.1446 311.83 23.3619 311.743 25.4029C311.496 31.5259 311.612 37.6561 311.656 43.7791C311.67 46.3595 311.881 48.9545 312.732 51.4547C314.229 55.8428 317.87 58.518 322.486 58.5836C324.557 58.6127 326.49 58.1608 328.315 57.1986C330.801 55.8939 332.247 53.7727 333.061 51.1413C333.592 49.4283 333.73 47.657 333.875 45.893C334.188 42.1901 333.969 38.4725 334.013 34.7623C334.049 31.8685 334.013 28.9746 334.02 26.0881C334.02 25.33 333.904 24.5938 333.759 23.8576C333.592 22.9902 333.025 22.5236 332.218 22.3195C331.665 22.181 331.106 22.13 330.532 22.1082C330.197 22.0936 329.681 22.181 329.681 21.6781C329.681 21.1678 330.175 21.2553 330.524 21.2407C331.774 21.1751 333.017 21.3574 334.267 21.3792C335.946 21.4084 337.625 21.4157 339.304 21.248C339.639 21.2116 339.988 21.2407 340.329 21.248C340.598 21.2553 340.853 21.3355 340.867 21.6489C340.882 21.9769 340.605 22.0498 340.366 22.1009C340.169 22.1446 339.959 22.13 339.755 22.1519C338.272 22.2758 337.611 22.961 337.502 24.448C337.277 27.5168 337.335 30.5856 337.335 33.6616C337.335 37.2771 337.327 40.8999 337.233 44.5153C337.168 47.1905 336.739 49.8073 335.692 52.3002C333.933 56.4843 330.699 59.0282 326.454 60.107C322.427 61.1275 318.379 60.8578 314.57 58.9626C311.278 57.3298 309.112 54.7349 308.109 51.1777C307.462 48.8816 307.15 46.549 307.171 44.1654C307.193 41.5267 307.171 38.8807 307.171 36.242L307.164 36.2129Z" fill="white"/>
<path d="M356.595 31.9856C356.654 34.4858 356.537 37.1683 356.661 39.858C356.712 40.9951 356.595 42.1323 356.603 43.2694C356.632 47.0525 356.668 50.8283 356.741 54.6115C356.755 55.4279 356.806 56.2515 357.002 57.0534C357.25 58.0666 357.758 58.7955 358.907 58.8757C359.583 58.9194 360.259 59.0215 360.935 59.1089C361.203 59.1454 361.538 59.211 361.501 59.5609C361.465 59.867 361.138 59.867 360.891 59.8597C358.914 59.8451 356.944 59.867 354.967 59.7723C353.434 59.6994 351.886 59.8306 350.345 59.867C349.938 59.8743 349.531 59.867 349.116 59.8451C348.935 59.8379 348.738 59.7795 348.709 59.5536C348.68 59.3349 348.855 59.2328 349.015 59.1454C349.327 58.9777 349.669 58.985 350.01 58.9559C351.231 58.8538 351.58 58.5477 351.871 57.3668C352.184 56.1203 352.205 54.8374 352.249 53.5691C352.503 45.6675 352.423 37.766 352.373 29.8644C352.358 28.1442 352.402 26.4093 352.176 24.6818C351.951 22.9396 351.435 22.3784 349.705 22.167C349.32 22.1232 348.935 22.1305 348.549 22.1087C348.288 22.0941 348.026 22.0722 348.033 21.7151C348.033 21.3652 348.237 21.234 348.564 21.2412C349.589 21.2558 350.606 21.234 351.631 21.2996C353.579 21.4308 355.527 21.3943 357.482 21.3141C360.724 21.1829 363.98 21.0371 367.12 22.1597C370.412 23.3478 372.433 25.6658 372.898 29.1209C373.349 32.5031 372.411 35.5719 370.187 38.2033C367.963 40.8348 365.099 42.1614 361.698 42.3801C361.044 42.4238 360.382 42.4821 359.728 42.4676C359.379 42.4603 358.849 42.4967 358.878 41.9282C358.907 41.4179 359.379 41.4835 359.728 41.4762C361.814 41.4544 363.791 41.0972 365.521 39.8288C367.716 38.2252 368.93 36.1186 368.937 33.3414C368.944 30.6517 368.486 28.1296 366.735 25.9793C365.092 23.9674 362.933 23.0125 360.397 22.8376C359.379 22.772 358.354 22.8376 357.351 23.0781C356.937 23.1729 356.748 23.3916 356.675 23.8144C356.566 24.4485 356.61 25.09 356.61 25.7241C356.603 27.7506 356.61 29.777 356.61 31.9929L356.595 31.9856Z" fill="white"/>
<path d="M169.743 77.4924C169.743 78.0172 169.757 78.542 169.743 79.0595C169.728 79.5115 169.765 79.927 170.194 80.204C170.31 80.2768 170.419 80.3862 170.346 80.5393C170.281 80.685 170.143 80.7069 170.005 80.7142C169.212 80.7507 168.427 80.5393 167.635 80.7142C167.519 80.7434 167.403 80.685 167.381 80.5538C167.366 80.4299 167.446 80.3279 167.562 80.2914C168.485 79.978 168.478 79.2345 168.456 78.4545C168.435 77.5871 168.456 76.727 168.456 75.8596C168.456 74.8828 168.028 74.2486 167.33 74.1539C166.719 74.0664 165.658 74.7443 165.469 75.4149C165.084 76.7926 165.251 78.214 165.28 79.6208C165.287 79.9707 165.585 80.1602 165.913 80.2623C166.051 80.306 166.203 80.357 166.167 80.5247C166.131 80.7215 165.949 80.7142 165.782 80.7069C164.968 80.6996 164.161 80.685 163.347 80.685C163.201 80.685 163.056 80.685 163.027 80.5174C163.005 80.3935 163.1 80.3133 163.216 80.2696C163.899 80.0071 163.979 79.4386 163.965 78.819C163.936 77.7548 164.168 76.6905 163.972 75.619C163.812 74.7589 163.521 74.3288 162.947 74.2778C162.286 74.2195 161.283 74.8391 161.123 75.4586C160.774 76.8217 160.876 78.214 160.919 79.5989C160.934 79.9561 161.203 80.1529 161.522 80.2623C161.639 80.306 161.741 80.3643 161.704 80.5028C161.675 80.6194 161.559 80.6923 161.443 80.6778C160.672 80.5976 159.902 80.6413 159.131 80.6778C158.841 80.6923 158.731 80.4664 158.971 80.2987C159.684 79.7812 159.589 79.045 159.589 78.316C159.589 77.2664 159.589 76.224 159.589 75.1744C159.589 74.737 159.553 74.3507 159 74.2705C158.848 74.2486 158.673 74.1685 158.673 73.9716C158.673 73.7165 158.891 73.7165 159.066 73.6947C159.4 73.6509 159.742 73.5999 160.076 73.578C160.534 73.5489 160.868 73.6801 160.934 74.2195C160.977 74.5548 161.101 74.7079 161.464 74.4163C162.787 73.3375 163.608 73.3156 164.931 74.3215C165.302 74.6058 165.542 74.4454 165.84 74.2559C166.552 73.7894 167.272 73.4031 168.195 73.6801C169.191 73.9716 169.721 74.5839 169.743 75.6482C169.757 76.2605 169.743 76.8801 169.743 77.4924Z" fill="white"/>
<path d="M127.914 77.572C127.914 76.8868 127.979 76.2016 127.899 75.531C127.79 74.6199 127.362 74.2044 126.715 74.1971C125.93 74.1898 125.101 74.8021 124.941 75.531C124.869 75.859 124.81 76.2016 124.796 76.5442C124.76 77.4116 124.752 78.2718 124.738 79.1392C124.731 79.6786 124.84 80.1378 125.443 80.3128C125.595 80.3565 125.777 80.4513 125.719 80.6408C125.661 80.8449 125.443 80.7647 125.305 80.7428C124.542 80.6116 123.771 80.5679 123.008 80.7282C122.892 80.7501 122.768 80.7428 122.71 80.6262C122.63 80.4804 122.71 80.3565 122.834 80.2836C123.415 79.9629 123.502 79.4089 123.546 78.8258C123.626 77.7105 123.698 76.6025 123.502 75.4946C123.35 74.6709 122.921 74.2408 122.296 74.2189C121.83 74.2044 120.835 74.8677 120.697 75.3415C120.282 76.741 120.384 78.177 120.42 79.613C120.42 79.8608 120.588 80.0212 120.798 80.1451C120.922 80.218 121.14 80.2617 121.053 80.4731C120.987 80.6481 120.791 80.6335 120.638 80.6335C119.955 80.6408 119.279 80.6481 118.596 80.6554C118.436 80.6554 118.247 80.6554 118.204 80.4731C118.16 80.2909 118.349 80.269 118.465 80.2253C119.01 79.9993 119.076 79.5037 119.083 79.0298C119.112 77.6886 119.098 76.3474 119.105 74.9989C119.105 74.5542 118.843 74.3501 118.494 74.1971C118.356 74.1315 118.167 74.0732 118.196 73.8763C118.233 73.6577 118.443 73.7306 118.589 73.7087C118.88 73.665 119.17 73.6212 119.468 73.6066C119.948 73.5848 120.384 73.6212 120.457 74.2627C120.493 74.5907 120.675 74.6927 120.958 74.4376C121.111 74.2991 121.278 74.1898 121.453 74.0804C122.528 73.4171 123.291 73.439 124.251 74.2335C124.578 74.5032 124.81 74.5615 125.196 74.3137C126.162 73.6941 127.173 73.2713 128.328 73.8763C128.808 74.1242 129.128 74.4522 129.179 75.0135C129.295 76.2162 129.295 77.4189 129.179 78.6217C129.113 79.285 129.091 79.8973 129.789 80.2836C130.065 80.4367 129.927 80.6262 129.717 80.6335C128.859 80.6554 127.994 80.5825 127.136 80.6991C127.02 80.7137 126.904 80.6335 126.904 80.5023C126.904 80.4367 126.991 80.32 127.049 80.3055C128.009 80.1159 127.965 79.387 127.95 78.6581C127.95 78.2936 127.95 77.9292 127.95 77.5647C127.936 77.5647 127.921 77.5647 127.899 77.5647L127.914 77.572Z" fill="white"/>
<path d="M297.374 84.9859C296.719 84.9932 296.058 85.0369 295.426 84.7891C294.793 84.5412 294.314 84.1403 294.234 83.4333C294.161 82.7481 294.655 82.369 295.135 82.0119C295.244 81.9317 295.375 81.8807 295.498 81.8223C295.695 81.7203 295.985 81.6547 295.985 81.4069C295.985 81.1809 295.695 81.159 295.527 81.057C294.597 80.5176 294.532 79.7959 295.36 79.118C296.044 78.564 296.029 78.5713 295.404 77.9226C294.764 77.2593 294.597 76.4574 294.91 75.59C295.527 73.8625 297.381 73.0971 299.009 73.9427C299.605 74.2561 300.041 74.2998 300.593 73.8333C301.168 73.3449 301.996 73.5563 302.301 74.154C302.432 74.4019 302.512 74.6934 302.265 74.9121C301.996 75.1527 301.72 75.0579 301.487 74.8101C301.407 74.7299 301.32 74.6497 301.24 74.5695C301 74.329 300.739 74.2561 300.448 74.4602C300.165 74.657 300.099 74.934 300.23 75.2474C300.521 75.9472 300.492 76.6251 300.121 77.2811C299.474 78.4255 298.398 78.7536 297.192 78.8265C296.858 78.8483 296.509 78.8119 296.225 79.067C296.022 79.2492 295.782 79.4315 295.869 79.7449C295.949 80.0292 296.225 80.0875 296.472 80.1167C297.083 80.1823 297.693 80.2479 298.304 80.2624C298.914 80.277 299.525 80.3135 300.128 80.4228C301.502 80.6706 302.134 82.1868 301.386 83.3749C300.717 84.4392 299.714 84.8692 298.529 84.9859C298.144 85.0223 297.759 84.9859 297.374 84.9859ZM300.652 82.5075C300.695 82.1795 300.455 81.8879 300.027 81.7203C298.587 81.159 297.192 81.1809 295.92 82.1504C294.961 82.8793 295.077 83.8342 296.182 84.2934C297.308 84.7599 298.457 84.6724 299.561 84.2497C300.237 83.9872 300.63 83.426 300.659 82.5075H300.652ZM299.031 76.3408C299.009 75.9691 299.016 75.6921 298.965 75.4224C298.82 74.6278 298.268 74.0666 297.657 74.0593C296.959 74.0593 296.371 74.6278 296.218 75.4515C296.102 76.0857 296.08 76.7199 296.32 77.3322C296.574 77.9736 297.097 78.3089 297.744 78.3162C298.398 78.3162 298.747 77.8424 298.907 77.252C298.994 76.924 299.002 76.5814 299.031 76.3408Z" fill="white"/>
<path d="M146.099 84.9851C145.373 85.0215 144.639 85.0142 143.955 84.7154C143.41 84.4821 142.938 84.1249 142.872 83.4981C142.807 82.842 143.199 82.3901 143.723 82.0475C143.745 82.0329 143.759 82.0256 143.781 82.0111C144.396 81.6174 144.423 81.2141 143.861 80.801C143.352 80.4366 143.359 79.7368 143.897 79.2339C144.043 79.0954 144.224 78.9933 144.399 78.884C144.726 78.6726 144.755 78.4831 144.442 78.1988C143.294 77.1418 143.156 76.1213 143.963 74.9551C144.857 73.6649 146.281 73.2056 147.517 73.8617C148.113 74.1751 148.563 74.3938 149.196 73.8107C149.784 73.264 150.831 73.6138 151.02 74.2772C151.093 74.525 151.1 74.7874 150.889 74.9769C150.649 75.1883 150.424 75.0352 150.213 74.8895C150.119 74.8239 150.039 74.7437 149.952 74.6708C149.697 74.474 149.428 74.2261 149.101 74.4084C148.738 74.6125 148.934 74.9696 148.985 75.2758C149.341 77.3459 148.171 78.7673 146.049 78.8475C145.649 78.8621 145.22 78.7601 144.9 79.1172C144.733 79.2995 144.5 79.4598 144.58 79.7514C144.66 80.043 144.951 80.0867 145.184 80.1159C145.954 80.1888 146.725 80.2252 147.488 80.2835C147.873 80.3127 148.251 80.3856 148.636 80.4001C150.242 80.4585 150.722 82.2881 149.995 83.4252C149.327 84.4675 148.309 84.9049 147.124 84.9924C146.783 85.0142 146.441 84.9924 146.107 84.9924L146.099 84.9851ZM146.565 84.5331C146.826 84.5331 147.299 84.4967 147.764 84.3874C148.215 84.278 148.614 84.0739 148.927 83.7313C149.726 82.8566 149.443 81.8726 148.309 81.581C147.364 81.3332 146.427 81.3915 145.496 81.6247C145.046 81.7341 144.675 81.9965 144.37 82.3464C143.737 83.068 143.934 83.9573 144.82 84.3363C145.314 84.5477 145.831 84.555 146.572 84.5404L146.565 84.5331ZM147.72 76.2526C147.742 75.8589 147.72 75.4653 147.56 75.1154C147.299 74.5687 146.979 74.0658 146.274 74.0731C145.649 74.0731 145.111 74.4958 144.915 75.1956C144.704 75.961 144.784 76.7409 145.075 77.4626C145.285 77.9947 145.758 78.3446 146.347 78.3446C146.914 78.3446 147.277 77.9291 147.531 77.448C147.72 77.0762 147.764 76.668 147.735 76.2526H147.72Z" fill="white"/>
<path d="M237.868 80.8528C236.524 80.6633 235.281 80.4956 234.009 80.7872C234.023 80.4081 234.234 80.3207 234.452 80.2551C235.15 80.051 235.368 79.5844 235.353 78.8628C235.317 76.6979 235.339 74.5403 235.339 72.3754C235.339 71.6902 234.256 70.225 233.609 70.0282C233.122 69.8824 232.432 70.2105 232.213 70.7572C231.894 71.5517 231.85 72.39 231.879 73.2428C231.894 73.5417 232.054 73.6947 232.352 73.702C232.533 73.702 232.715 73.7093 232.897 73.7166C233.173 73.7239 233.42 73.8114 233.435 74.1175C233.456 74.4893 233.158 74.5403 232.875 74.5694C232.737 74.584 232.606 74.584 232.468 74.5694C232.083 74.5476 231.872 74.7006 231.879 75.1161C231.894 76.5011 231.886 77.8933 231.894 79.2783C231.894 79.7885 232.235 80.0364 232.642 80.2405C232.817 80.328 233.107 80.3644 233.02 80.6268C232.94 80.8601 232.657 80.7653 232.468 80.7361C231.632 80.6341 230.803 80.5248 229.968 80.7653C229.859 80.7945 229.72 80.8382 229.662 80.7143C229.59 80.5612 229.706 80.43 229.829 80.3863C230.702 80.102 230.694 79.3803 230.709 78.666C230.731 77.4851 230.731 76.297 230.782 75.1161C230.796 74.7371 230.723 74.5476 230.324 74.5622C230.237 74.5622 230.142 74.5403 230.055 74.5184C229.859 74.4601 229.626 74.4237 229.604 74.1685C229.59 73.877 229.822 73.7458 230.048 73.753C230.811 73.7676 230.854 73.3011 230.84 72.718C230.789 70.728 232.213 69.2264 234.336 69.5909C234.888 69.6856 235.448 69.8168 236.015 69.5909C236.306 69.4743 236.444 69.6711 236.473 69.9262C236.502 70.1959 236.487 70.4729 236.487 70.7426C236.494 73.3813 236.509 76.02 236.502 78.666C236.502 79.4605 236.509 80.1967 237.519 80.3717C237.599 80.3863 237.672 80.4737 237.73 80.5393C237.774 80.5831 237.781 80.656 237.861 80.8382L237.868 80.8528Z" fill="white"/>
<path d="M96.0284 80.7287C95.069 80.6266 94.0514 80.5829 93.0266 80.7068C92.8522 80.7287 92.605 80.7287 92.576 80.51C92.5469 80.2476 92.8086 80.2986 92.9757 80.2622C93.9206 80.0508 94.0224 79.8904 93.768 78.9501C93.6807 78.6221 93.579 78.2941 93.47 77.9733C92.983 76.5592 92.983 76.5519 91.4639 76.5373C90.8752 76.5373 90.2865 76.5738 89.6977 76.5957C89.3416 76.6102 89.189 76.8508 89.0945 77.1496C88.9273 77.6453 88.7601 78.141 88.6075 78.6439C88.324 79.5697 88.5421 79.9779 89.487 80.2767C89.6396 80.3205 89.8431 80.3205 89.814 80.5319C89.7922 80.736 89.596 80.7505 89.4361 80.7287C88.5566 80.6412 87.6772 80.6048 86.7904 80.6849C86.6451 80.6995 86.4488 80.6558 86.427 80.4517C86.4052 80.2694 86.5942 80.2622 86.7105 80.2111C87.3719 79.9341 87.7135 79.4166 87.9534 78.7606C88.9636 75.9615 89.9231 73.1406 91.1514 70.429C91.2604 70.1957 91.275 69.8458 91.6166 69.8239C91.98 69.7948 92.009 70.152 92.1253 70.3779C92.983 72.1128 93.5572 73.9642 94.2404 75.772C94.6692 76.8945 95.0763 78.0316 95.5051 79.1542C95.7304 79.7519 96.1447 80.1309 96.777 80.2767C96.9442 80.3132 97.2059 80.3059 97.1622 80.5464C97.1259 80.7651 96.8788 80.7287 96.7043 80.7287C96.5008 80.7287 96.2973 80.7287 96.0357 80.7287H96.0284ZM91.0642 75.9251C91.4494 75.9251 91.8346 75.9251 92.2198 75.9251C92.5905 75.9251 92.6995 75.7647 92.5542 75.4075C92.1471 74.3724 91.7547 73.3374 91.3549 72.3023C91.3113 72.1857 91.3113 72.0034 91.1296 72.0107C90.9697 72.018 90.9261 72.1857 90.8825 72.3096C90.5917 73.0239 90.3083 73.7383 90.0321 74.4599C89.6541 75.4512 90.0006 75.9421 91.0714 75.9323L91.0642 75.9251Z" fill="white"/>
<path d="M329.456 74.5106C329.478 75.5821 329.427 77.2149 329.339 78.855C329.31 79.3798 329.39 79.8536 329.877 80.1671C330.008 80.2546 330.146 80.3712 330.074 80.5607C330.001 80.7575 329.826 80.7065 329.667 80.6919C329.376 80.67 329.078 80.6263 328.787 80.6409C328.395 80.6627 328.177 80.5388 328.169 80.1233C328.162 79.7006 327.951 79.7006 327.711 79.9484C326.883 80.794 325.952 81.0345 324.884 80.4659C323.576 79.7662 322.914 78.6728 322.994 77.1858C323.06 76.0122 323.561 75.0427 324.492 74.3138C325.386 73.614 326.33 73.3954 327.392 73.9931C328.111 74.4013 328.351 74.2336 328.264 73.4245C328.177 72.63 328.162 71.8355 328.169 71.0409C328.169 70.5744 328.089 70.1808 327.61 69.984C327.486 69.933 327.348 69.8455 327.384 69.6851C327.421 69.5248 327.581 69.5102 327.711 69.5029C328.031 69.4956 328.344 69.5029 328.664 69.4883C329.252 69.4592 329.47 69.7507 329.463 70.3193C329.448 71.522 329.463 72.732 329.463 74.5033L329.456 74.5106ZM328.162 76.9962C328.155 76.5224 328.104 76.0486 328.075 75.5748C328.009 74.6345 327.413 74.2919 326.367 74.1826C325.531 74.0951 324.92 74.5908 324.71 75.4728C324.455 76.5443 324.426 77.6304 324.688 78.7092C324.891 79.5475 325.538 80.1306 326.214 80.1233C326.999 80.1233 327.784 79.4892 327.995 78.6874C328.14 78.1334 328.191 77.5721 328.162 77.0035V76.9962Z" fill="white"/>
<path d="M279.181 77.645C279.181 78.148 279.181 78.6437 279.181 79.1466C279.181 79.5621 279.188 79.9703 279.523 80.2838C279.624 80.3785 279.704 80.4951 279.624 80.6482C279.545 80.8013 279.392 80.7867 279.268 80.7576C278.709 80.6191 278.149 80.5899 277.582 80.7065C277.451 80.7357 277.299 80.7503 277.226 80.5972C277.153 80.4368 277.255 80.3275 277.379 80.2619C277.996 79.9485 278.04 79.409 278.018 78.8113C277.975 77.769 278.105 76.712 277.931 75.6769C277.771 74.7002 277.226 74.1754 276.456 74.1826C275.649 74.1826 274.958 74.8824 274.813 75.7644C274.638 76.8287 274.675 77.8929 274.66 78.9644C274.66 79.4746 274.682 79.9703 275.125 80.3275C275.234 80.415 275.322 80.5607 275.22 80.6774C275.169 80.743 275.009 80.7576 274.907 80.7357C274.275 80.5972 273.65 80.5753 273.025 80.7503C272.916 80.7794 272.785 80.8159 272.72 80.6992C272.654 80.5899 272.705 80.4587 272.792 80.3931C273.563 79.7516 273.49 78.8478 273.497 78.0022C273.526 75.9539 273.512 73.9057 273.505 71.8574C273.505 71.143 273.468 70.4287 272.741 70.0059C272.618 69.933 272.531 69.8091 272.596 69.6633C272.669 69.4884 272.829 69.4519 272.996 69.4884C273.396 69.5758 273.795 69.5831 274.21 69.5613C274.675 69.5394 274.697 69.9476 274.697 70.3048C274.697 71.42 274.689 72.5353 274.689 73.6505C274.689 73.8692 274.602 74.1462 274.813 74.2847C275.089 74.4596 275.271 74.1754 275.46 74.0442C276.339 73.4319 277.262 73.461 278.171 73.9129C278.999 74.3211 279.123 75.1375 279.174 75.9467C279.21 76.5152 279.174 77.0838 279.174 77.6523L279.181 77.645Z" fill="white"/>
<path d="M321.148 77.1862C321.126 77.66 321.134 78.1411 321.075 78.6149C320.995 79.2709 320.937 79.8905 321.664 80.2696C321.926 80.4081 321.81 80.5903 321.57 80.6049C321.279 80.6267 320.981 80.6049 320.69 80.5465C320.247 80.4591 319.833 80.5465 319.418 80.6705C319.295 80.7069 319.142 80.7506 319.062 80.5903C318.997 80.4664 319.091 80.357 319.193 80.306C319.847 79.9853 319.862 79.4021 319.862 78.7898C319.854 77.8568 319.876 76.9238 319.847 75.9908C319.825 75.1452 319.418 74.511 318.866 74.3434C318.255 74.1612 317.478 74.511 317.005 75.1962C316.569 75.8377 316.453 76.5812 316.395 77.332C316.358 77.8495 316.387 78.3816 316.366 78.8992C316.344 79.424 316.416 79.8978 316.903 80.2112C317.02 80.2841 317.129 80.3935 317.056 80.5465C316.983 80.6996 316.831 80.6778 316.7 80.6632C316.089 80.583 315.479 80.5903 314.876 80.7142C314.723 80.7434 314.534 80.7652 314.447 80.5976C314.331 80.3643 314.556 80.2768 314.694 80.1821C315.086 79.9051 315.225 79.5333 315.225 79.0668C315.225 77.886 315.224 76.7051 315.254 75.517C315.261 74.9703 315.188 74.4746 314.679 74.1466C314.541 74.0518 314.367 73.9133 314.476 73.7019C314.563 73.5343 314.752 73.5707 314.905 73.5707C315.225 73.5707 315.537 73.5926 315.857 73.6145C316.38 73.6509 316.402 74.0883 316.496 74.4527C316.598 74.8682 316.7 74.9557 317.042 74.5912C317.71 73.8769 318.51 73.4687 319.535 73.6946C320.349 73.8769 320.886 74.4236 321.032 75.2545C321.141 75.8887 321.155 76.5229 321.163 77.157L321.148 77.1862Z" fill="white"/>
<path d="M292.249 77.6018C292.249 78.0829 292.271 78.5567 292.249 79.0378C292.22 79.5407 292.264 80 292.787 80.2478C292.911 80.3061 293.034 80.4009 292.94 80.5612C292.875 80.6706 292.751 80.6924 292.635 80.656C291.981 80.4082 291.334 80.605 290.687 80.6633C290.534 80.6779 290.352 80.7508 290.273 80.554C290.193 80.3571 290.374 80.2697 290.505 80.1895C290.854 79.9781 290.941 79.6501 290.978 79.2638C291.087 78.1048 291.167 76.9531 290.978 75.7941C290.869 75.1089 290.65 74.4893 289.858 74.3435C289.044 74.1977 288.528 74.7007 288.121 75.2984C287.598 76.0638 287.627 76.9895 287.503 77.8569C287.445 78.2797 287.489 78.7171 287.482 79.1544C287.474 79.6209 287.649 79.9927 288.048 80.2478C288.165 80.3207 288.296 80.4009 288.223 80.5685C288.157 80.7216 288.005 80.707 287.867 80.6924C287.213 80.5977 286.558 80.5685 285.904 80.7143C285.752 80.7508 285.563 80.758 285.505 80.5612C285.454 80.3936 285.599 80.3207 285.73 80.2697C286.319 80.0291 286.413 79.5043 286.428 78.9722C286.449 77.8351 286.449 76.6979 286.428 75.5608C286.42 75.0287 286.297 74.5184 285.81 74.1904C285.701 74.1175 285.577 74.0155 285.628 73.8551C285.679 73.6948 285.839 73.7166 285.97 73.7021C286.195 73.6802 286.42 73.6729 286.646 73.651C287.176 73.6073 287.605 73.6948 287.627 74.3654C287.627 74.5403 287.678 74.7517 287.874 74.81C288.07 74.8683 288.121 74.6569 288.223 74.5403C288.942 73.7093 289.866 73.5344 290.883 73.7385C291.632 73.8916 292.177 74.708 292.228 75.7503C292.257 76.3626 292.228 76.9749 292.228 77.5945L292.249 77.6018Z" fill="white"/>
<path d="M204.057 80.5531C203.104 80.5969 202.225 80.4511 201.367 80.6625C201.309 80.677 201.2 80.5896 201.164 80.524C201.106 80.4 201.186 80.298 201.295 80.2543C201.971 79.9554 201.978 79.3795 201.956 78.76C201.934 77.9873 201.956 77.2146 201.956 76.442C201.956 76.216 201.941 75.9828 201.905 75.7641C201.767 74.9768 201.244 74.3354 200.706 74.2625C200.124 74.1896 199.012 74.8894 198.838 75.5454C198.496 76.8429 198.235 78.1622 198.46 79.518C198.511 79.8388 198.569 80.1449 198.903 80.3126C199.02 80.3709 199.172 80.4511 199.092 80.6187C199.027 80.7645 198.867 80.7718 198.736 80.7426C198.06 80.5969 197.392 80.575 196.723 80.7791C196.599 80.8155 196.439 80.852 196.374 80.6843C196.309 80.5313 196.41 80.3928 196.534 80.349C197.304 80.021 197.297 79.3139 197.319 78.6725C197.362 77.5354 197.333 76.3982 197.341 75.2611C197.341 74.7654 197.152 74.3864 196.737 74.1094C196.628 74.0365 196.498 73.9345 196.534 73.7814C196.585 73.5773 196.774 73.5919 196.926 73.5992C197.29 73.6283 197.646 73.6793 198.009 73.7158C198.525 73.7595 198.445 74.2042 198.576 74.5249C198.743 74.9258 198.947 74.7144 199.136 74.5249C199.652 73.9928 200.27 73.7231 201.018 73.7158C202.29 73.7158 203.119 74.4812 203.155 75.7641C203.184 76.6534 203.177 77.5354 203.155 78.4247C203.141 79.2556 203.032 80.1085 204.071 80.5604L204.057 80.5531Z" fill="white"/>
<path d="M105.644 80.524C105.484 80.7209 105.259 80.6334 105.077 80.6115C104.445 80.5386 103.813 80.4876 103.187 80.6625C103.042 80.7063 102.853 80.7573 102.773 80.5605C102.686 80.3564 102.868 80.2762 103.006 80.2106C103.471 79.9774 103.631 79.5837 103.66 79.0954C103.725 78.0749 103.762 77.0471 103.66 76.0266C103.565 74.9623 103.093 74.3719 102.403 74.3209C101.639 74.2553 100.753 74.8967 100.469 75.7787C100.2 76.6097 100.157 77.4771 100.128 78.3373C100.098 79.0589 100.011 79.817 100.694 80.3491C100.745 80.3928 100.774 80.5168 100.753 80.5896C100.716 80.7281 100.578 80.7136 100.469 80.699C99.815 80.5969 99.1609 80.5969 98.5067 80.7063C98.3686 80.7281 98.216 80.7136 98.1724 80.5532C98.1215 80.3855 98.2523 80.3054 98.3832 80.2543C98.9937 80.0065 99.1027 79.5181 99.0882 78.9204C99.0591 77.8489 99.0664 76.7774 99.0882 75.7131C99.1027 75.1154 99.0228 74.5906 98.5285 74.1824C98.2305 73.9346 98.2232 73.7377 98.6884 73.6867C98.9791 73.6576 99.2699 73.643 99.5679 73.6721C99.9967 73.7159 100.258 73.8471 100.244 74.3282C100.244 74.4813 100.222 74.6708 100.396 74.751C100.607 74.8457 100.731 74.6635 100.854 74.5469C101.392 74.0147 102.01 73.694 102.795 73.7159C104.074 73.7523 104.83 74.4521 104.881 75.7423C104.917 76.6753 104.888 77.6083 104.881 78.5414C104.874 79.6348 104.866 79.6348 105.659 80.5313L105.644 80.524Z" fill="white"/>
<path d="M253.284 76.2309C253.277 77.0254 253.284 77.8199 253.19 78.6144C253.124 79.183 253.19 79.7589 253.669 80.1816C253.8 80.2983 253.887 80.4295 253.691 80.568C253.241 80.8887 252.201 80.5461 252.114 80.014C252.041 79.5621 251.881 79.6277 251.583 79.8245C251.016 80.1962 250.457 80.5898 249.752 80.6919C248.654 80.8595 247.92 80.3785 247.746 79.2778C247.549 78.0167 247.535 76.7411 247.557 75.4655C247.564 74.9771 247.622 74.5252 247.23 74.1388C246.983 73.8983 247.084 73.7525 247.411 73.7088C248.531 73.5703 248.771 73.789 248.792 74.9261C248.814 76.1069 248.858 77.2878 248.909 78.476C248.952 79.4017 249.294 79.9265 249.868 80.0067C250.529 80.1015 251.641 79.5037 251.794 78.8623C252.099 77.5502 252.172 76.209 252.049 74.8678C252.019 74.5325 251.787 74.2992 251.511 74.117C251.416 74.0587 251.322 73.9712 251.365 73.84C251.416 73.7088 251.547 73.7161 251.656 73.7161C252.107 73.7234 252.543 73.84 253.008 73.789C253.277 73.7598 253.277 74.0514 253.284 74.2482C253.291 74.9115 253.284 75.5675 253.284 76.2309Z" fill="white"/>
<path d="M136.353 77.2295C136.353 77.7981 136.353 78.3666 136.353 78.9352C136.353 79.5693 136.512 80.1088 137.225 80.2983C137.348 80.3347 137.515 80.4003 137.472 80.568C137.435 80.721 137.261 80.7356 137.13 80.721C136.432 80.6482 135.662 80.9251 135.102 80.2254C134.899 79.963 134.652 80.1816 134.434 80.3056C133.801 80.6482 133.154 80.896 132.42 80.6773C131.148 80.291 130.763 78.7092 131.73 77.7835C132.115 77.4117 132.573 77.1858 133.075 77.0108C133.503 76.865 133.91 76.6609 134.332 76.4933C134.935 76.2527 135.255 75.8591 135.11 75.1812C134.986 74.5981 134.695 74.168 134.063 74.0878C133.496 74.0222 133.045 74.394 132.798 75.0937C132.784 75.1375 132.769 75.1812 132.755 75.2249C132.638 75.5165 132.558 75.8737 132.195 75.932C131.883 75.983 131.708 75.7133 131.585 75.4655C131.396 75.0937 131.476 74.7439 131.774 74.4669C132.595 73.7015 133.569 73.4026 134.659 73.6796C136.12 74.0587 136.36 74.4086 136.36 75.932C136.36 76.3621 136.36 76.7994 136.36 77.2295H136.353ZM135.066 77.8199C135.066 77.645 135.081 77.3753 135.066 77.1056C135.052 76.8869 134.913 76.763 134.695 76.8869C134.012 77.2805 133.256 77.5867 132.769 78.2354C132.406 78.7092 132.391 79.2632 132.747 79.7443C133.125 80.2618 133.605 80.1525 134.136 79.9047C135.022 79.4892 135.117 78.7457 135.081 77.8199H135.066Z" fill="white"/>
<path d="M117.491 80.3854C116.655 80.8884 115.783 80.8447 115.151 80.2761C114.918 80.0647 114.707 80.072 114.482 80.2251C114.133 80.451 113.755 80.6041 113.356 80.6989C112.367 80.9467 111.495 80.5385 111.168 79.6784C110.862 78.8766 111.24 77.8415 112.091 77.4187C112.839 77.047 113.632 76.7408 114.424 76.4857C115.129 76.2597 115.042 75.7276 115.013 75.2101C114.976 74.5467 114.584 74.1896 113.944 74.0875C113.392 74 113.014 74.1969 112.825 74.7363C112.745 74.9695 112.694 75.2246 112.585 75.4433C112.418 75.7713 112.156 76.0119 111.764 75.8078C111.386 75.6183 111.262 75.2757 111.422 74.882C111.633 74.3718 112.047 74.0365 112.549 73.847C113.603 73.4315 114.635 73.4752 115.623 74.0729C116.197 74.4155 116.263 74.9841 116.277 75.5599C116.299 76.6533 116.277 77.7467 116.292 78.8401C116.306 80.0064 116.343 80.0355 117.484 80.3927L117.491 80.3854ZM115.034 77.8852C115.034 77.6374 115.042 77.3895 115.034 77.1344C115.027 76.9449 114.933 76.8574 114.729 76.8793C114.075 76.9303 112.65 78.0383 112.447 78.6725C112.294 79.1463 112.52 79.5107 112.825 79.8387C113.123 80.1522 113.465 80.1668 113.879 80.021C114.918 79.6492 115.078 78.8328 115.042 77.8852H115.034Z" fill="white"/>
<path d="M176.837 77.2148C176.837 77.7834 176.815 78.352 176.837 78.9205C176.858 79.5037 176.917 80.0941 177.701 80.1597C177.818 80.167 177.934 80.2472 177.92 80.3711C177.912 80.4367 177.811 80.5315 177.738 80.546C177.36 80.6116 176.975 80.6554 176.597 80.7137C176.175 80.7793 175.95 80.5387 175.71 80.2253C175.448 79.89 175.121 80.1233 174.867 80.3055C174.293 80.6991 173.675 80.8595 172.992 80.7064C172.338 80.5606 171.872 80.1743 171.72 79.5182C171.567 78.8331 171.698 78.2062 172.258 77.7178C172.817 77.2294 173.508 76.9962 174.191 76.7337C174.424 76.6463 174.649 76.5442 174.881 76.4422C175.325 76.2527 175.761 76.1069 175.623 75.429C175.412 74.3939 175.296 74.1898 174.482 74.095C173.973 74.0367 173.588 74.2044 173.413 74.7219C173.348 74.9187 173.29 75.1082 173.217 75.3051C173.108 75.5893 172.97 75.8663 172.628 75.8955C172.359 75.9174 172.163 75.7424 172.025 75.5237C171.836 75.2176 171.858 74.9114 172.069 74.6272C172.534 74.0076 173.195 73.7233 173.929 73.6067C174.329 73.5411 174.743 73.5556 175.15 73.6504C176.48 73.942 176.815 74.3502 176.837 75.7133C176.844 76.2162 176.837 76.7119 176.837 77.2148ZM175.681 77.5939C175.681 77.5939 175.659 77.5939 175.652 77.5939C175.652 77.4116 175.652 77.2294 175.652 77.0472C175.645 76.8139 175.528 76.6754 175.303 76.7994C174.533 77.2221 173.682 77.5574 173.181 78.3447C172.919 78.7529 172.941 79.2267 173.181 79.6495C173.37 79.992 173.697 80.1597 174.096 80.1305C174.809 80.0649 175.463 79.4162 175.557 78.6873C175.608 78.3301 175.645 77.9656 175.688 77.6085L175.681 77.5939Z" fill="white"/>
<path d="M156.805 76.3184C156.783 77.2733 156.594 78.2137 156.754 79.1758C156.834 79.6496 156.929 80.0141 157.452 80.1162C157.583 80.138 157.757 80.1526 157.721 80.3421C157.706 80.4296 157.583 80.5171 157.488 80.5608C156.812 80.8888 155.94 80.7066 155.504 80.0943C155.308 79.8173 155.192 79.912 155.039 80.0943C154.806 80.364 154.501 80.5098 154.181 80.6264C153.178 80.9909 152.088 80.59 151.747 79.7371C151.354 78.7676 151.834 77.7253 152.88 77.2879C153.527 77.0182 154.174 76.7266 154.828 76.4861C155.475 76.2456 155.577 75.7645 155.49 75.1667C155.402 74.5326 155.032 74.2191 154.407 74.1317C153.774 74.0369 153.418 74.3358 153.222 74.897C153.157 75.0866 153.084 75.2834 153.004 75.4729C152.866 75.8082 152.611 75.9103 152.284 75.7936C151.935 75.6697 151.768 75.4146 151.892 75.0428C152.124 74.3285 152.677 73.9349 153.346 73.7235C154.174 73.4538 155.01 73.5558 155.809 73.8911C156.362 74.1244 156.638 74.5909 156.718 75.1667C156.769 75.5458 156.769 75.9394 156.791 76.3257L156.805 76.3184ZM155.606 77.2952C155.577 77.1494 155.7 76.6829 155.206 76.8579C154.349 77.164 153.527 77.5795 153.004 78.3886C152.742 78.7895 152.786 79.2196 153.055 79.6059C153.302 79.9558 153.593 80.2182 154.08 80.1307C154.988 79.9631 155.41 79.4966 155.49 78.5708C155.519 78.1845 155.555 77.7982 155.599 77.3025L155.606 77.2952Z" fill="white"/>
<path d="M343.789 77.2292C343.789 77.7541 343.789 78.2789 343.789 78.7964C343.789 79.4306 343.832 80.0575 344.639 80.2105C344.741 80.2324 344.872 80.2834 344.835 80.4365C344.806 80.5677 344.69 80.6042 344.574 80.6187C343.898 80.7062 343.193 80.8155 342.662 80.2397C342.386 79.9408 342.212 80.021 341.935 80.2397C341.354 80.6843 340.678 80.9103 339.958 80.6771C339.282 80.4584 338.723 80.0356 338.672 79.2484C338.614 78.3809 339.072 77.7541 339.799 77.3677C340.438 77.0324 341.136 76.7992 341.797 76.5076C342.626 76.1431 342.822 75.7204 342.546 74.9623C342.299 74.2625 341.725 74.0001 340.954 74.2042C340.642 74.2844 340.431 74.4593 340.365 74.7873C340.329 74.9623 340.278 75.1445 340.198 75.3049C340.024 75.6475 339.857 76.0994 339.362 75.8516C338.919 75.6329 338.846 75.1882 339.006 74.729C339.006 74.7071 339.028 74.6853 339.035 74.6707C339.421 73.8835 340.918 73.4242 342.226 73.7012C343.338 73.9345 343.76 74.4447 343.789 75.5891C343.803 76.1358 343.789 76.6825 343.789 77.2292ZM342.597 77.8342C342.597 77.6083 342.597 77.3823 342.597 77.149C342.597 76.9377 342.495 76.7554 342.27 76.8502C341.485 77.1855 340.634 77.4625 340.133 78.2352C339.857 78.6652 339.849 79.1536 340.097 79.5982C340.278 79.9263 340.562 80.1595 340.976 80.1376C341.674 80.1012 342.335 79.5326 342.51 78.8474C342.597 78.5121 342.597 78.1695 342.597 77.8342Z" fill="white"/>
<path d="M356.53 73.5781C358.384 73.5781 360.004 75.2182 359.99 77.0843C359.975 79.0086 358.238 80.7508 356.327 80.7653C354.473 80.7799 352.961 79.1763 352.961 77.2009C352.961 75.2401 354.597 73.5781 356.537 73.5781H356.53ZM358.558 77.2082C358.631 76.246 358.347 75.3421 357.599 74.6059C356.777 73.7895 355.498 73.9134 354.917 74.9266C354.175 76.2314 354.153 77.6382 354.691 79.0086C355.055 79.9271 355.811 80.3498 356.646 80.2915C357.431 80.2332 358.136 79.5918 358.413 78.7098C358.558 78.2432 358.551 77.7694 358.551 77.2228L358.558 77.2082Z" fill="white"/>
<path d="M195.24 77.0989C195.24 78.9941 193.503 80.7799 191.671 80.7799C189.854 80.7799 188.211 79.0742 188.204 77.179C188.197 75.313 189.919 73.5709 191.766 73.5781C193.721 73.5781 195.24 75.1235 195.24 77.0989ZM189.629 77.1645C189.607 77.7184 189.665 78.2651 189.847 78.7827C190.108 79.5335 190.639 80.0802 191.409 80.2697C192.129 80.4446 192.754 80.1749 193.219 79.5918C194.222 78.3453 194.084 75.7722 192.958 74.6351C192.209 73.8697 191.177 73.877 190.421 74.6351C189.716 75.3421 189.651 76.246 189.621 77.1645H189.629Z" fill="white"/>
<path d="M212.618 80.7646C210.758 80.7864 209.195 79.2338 209.18 77.3532C209.159 75.3122 210.75 73.6065 212.684 73.5774C214.399 73.5555 216.18 75.2539 216.194 76.9304C216.216 78.935 214.523 80.75 212.618 80.7718V80.7646ZM214.791 77.273C214.835 76.617 214.77 75.9609 214.472 75.3559C214.13 74.678 213.607 74.1532 212.829 74.073C212.059 73.9928 211.492 74.4448 211.07 75.0498C210.336 76.1067 210.431 78.5049 211.223 79.5181C212 80.5167 213.142 80.5605 214.021 79.6639C214.69 78.986 214.821 78.1696 214.784 77.2657L214.791 77.273Z" fill="white"/>
<path d="M219.356 72.9072C219.261 73.5122 219.516 73.7747 220.112 73.7455C220.294 73.7382 220.475 73.7601 220.65 73.8111C220.839 73.8621 220.977 73.9933 220.969 74.2047C220.969 74.4453 220.766 74.4671 220.584 74.5109C219.37 74.7879 219.356 74.7879 219.363 76.0635C219.37 77.135 219.298 78.1992 219.443 79.2708C219.516 79.8029 219.698 80.1746 220.257 80.3058C220.475 80.3569 220.766 80.4589 220.664 80.7359C220.577 80.9764 220.301 80.8161 220.112 80.7796C219.349 80.6411 218.586 80.5537 217.822 80.7796C217.677 80.8234 217.488 80.9036 217.394 80.7213C217.292 80.5318 217.459 80.4152 217.597 80.3496C218.128 80.0799 218.208 79.6352 218.215 79.0885C218.222 77.8566 218.266 76.632 218.324 75.4075C218.346 74.8899 218.215 74.5765 217.648 74.5327C217.401 74.5182 217.11 74.4453 217.117 74.1173C217.132 73.7892 217.423 73.7382 217.67 73.7455C218.186 73.7601 218.338 73.4977 218.324 73.0239C218.302 72.448 218.411 71.8867 218.622 71.3546C219.276 69.7073 220.715 69.2626 222.234 69.6635C222.968 69.8603 223.346 70.582 223.077 71.1214C222.881 71.515 222.627 71.6316 222.307 71.238C222.118 71.0047 221.943 70.7715 221.762 70.5382C221.093 69.7218 220.185 69.8312 219.719 70.7788C219.385 71.4567 219.494 72.2075 219.356 72.9072Z" fill="white"/>
<path d="M238.748 77.2301C238.763 75.2693 240.391 73.5709 242.244 73.5781C244.112 73.5781 245.784 75.2765 245.755 77.1353C245.718 79.0378 243.974 80.7726 242.106 80.7654C240.311 80.7581 238.741 79.0961 238.748 77.2374V77.2301ZM244.352 77.2957C244.396 76.3772 244.192 75.5244 243.581 74.8173C242.629 73.7021 241.27 73.8333 240.551 75.1089C239.896 76.2752 239.904 77.5216 240.318 78.7462C240.689 79.8542 241.423 80.3426 242.389 80.2916C243.233 80.2478 243.923 79.5699 244.214 78.513C244.323 78.1121 244.366 77.7112 244.352 77.2957Z" fill="white"/>
<path d="M311.343 76.7992C310.762 76.7481 309.999 76.9085 309.228 76.9304C308.727 76.945 308.589 77.2074 308.603 77.6885C308.683 79.8461 310.755 80.7062 312.274 79.6493C312.484 79.5035 312.79 79.1026 313.015 79.416C313.284 79.7878 312.782 79.9335 312.557 80.0866C311.016 81.1727 309.17 80.9978 308.007 79.6711C306.866 78.3736 306.91 76.216 308.102 74.9112C308.182 74.8238 308.262 74.7509 308.334 74.6634C310.151 72.4912 312.601 73.9564 313.219 75.8589C313.444 76.5586 313.298 76.7627 312.55 76.7919C312.208 76.8065 311.867 76.7919 311.336 76.7919L311.343 76.7992ZM310.224 76.3399V76.3254C310.471 76.3254 310.725 76.3254 310.973 76.3254C311.925 76.2962 312.252 75.6839 311.758 74.8675C311.438 74.3427 310.987 74.022 310.362 74.0657C309.621 74.1167 309.199 74.6343 308.894 75.2393C308.501 76.0192 308.698 76.3327 309.548 76.3472C309.773 76.3472 309.999 76.3472 310.224 76.3472V76.3399Z" fill="white"/>
<path d="M334.333 76.9158C334.187 76.9158 334.115 76.9158 334.049 76.9158C332.683 76.9158 332.407 77.2511 332.959 78.5267C333.671 80.1814 334.827 80.5458 336.578 79.642C336.797 79.5253 337.065 79.1244 337.254 79.3868C337.502 79.7221 337.044 79.9189 336.818 80.1012C335.677 80.9978 333.817 81.0269 332.741 80.1886C331.52 79.2265 331.076 77.4333 331.687 75.9244C331.905 75.3923 332.21 74.9112 332.639 74.5249C333.424 73.8251 334.325 73.3586 335.372 73.7158C336.462 74.0875 337.153 74.9331 337.494 76.0411C337.669 76.6096 337.305 76.7773 336.833 76.7991C335.975 76.8502 335.11 76.8793 334.333 76.9158ZM334.405 76.3326C334.405 76.3326 334.405 76.3545 334.405 76.3618C334.79 76.3399 335.183 76.3472 335.554 76.2816C335.946 76.216 336.208 75.9827 336.179 75.5308C336.106 74.3281 334.921 73.7012 333.911 74.3354C333.519 74.5832 333.213 74.9185 333.024 75.3413C332.719 76.0046 332.872 76.2816 333.584 76.3253C333.853 76.3472 334.129 76.3253 334.398 76.3253L334.405 76.3326Z" fill="white"/>
<path d="M137.98 69.9329C138.395 69.6267 138.889 69.8017 139.347 69.736C140.612 69.5611 140.619 69.5684 140.619 70.8805C140.619 73.2932 140.604 75.6987 140.604 78.1114C140.604 78.4977 140.662 78.8841 140.677 79.2704C140.699 79.8098 140.888 80.1961 141.477 80.2836C141.615 80.3055 141.775 80.3638 141.753 80.5241C141.731 80.7282 141.542 80.7428 141.382 80.721C140.43 80.5752 139.485 80.5752 138.547 80.8303C138.438 80.8595 138.3 80.874 138.249 80.7574C138.184 80.6043 138.286 80.4585 138.409 80.4294C139.55 80.1159 139.434 79.2048 139.42 78.3301C139.369 76.1433 139.47 73.9638 139.361 71.777C139.325 71.019 139.049 70.5306 138.344 70.2682C138.206 70.2171 138.039 70.1661 137.988 69.9401L137.98 69.9329Z" fill="white"/>
<path d="M266.295 79.2126C266.389 78.9429 266.084 78.3962 266.447 78.2941C266.782 78.2067 266.927 78.7752 267.072 79.0741C267.487 79.9269 268.097 80.3716 269.071 80.2914C269.536 80.255 269.943 80.131 270.089 79.6499C270.234 79.1761 270.198 78.6878 269.783 78.3379C269.58 78.1629 269.34 78.0171 269.1 77.8932C268.657 77.66 268.206 77.4559 267.755 77.2372C266.76 76.7415 266.302 75.9543 266.527 75.1379C266.796 74.1611 267.843 73.4031 268.853 73.527C269.434 73.5999 270.009 73.7748 270.568 73.9497C270.975 74.0809 271.215 75.5825 270.903 75.8595C270.743 76.0053 270.648 75.8741 270.583 75.7575C270.437 75.5024 270.321 75.2254 270.183 74.9702C269.754 74.183 269.253 73.9279 268.402 74.0809C267.966 74.1538 267.654 74.3944 267.53 74.839C267.414 75.2618 267.639 75.5461 267.937 75.7721C268.17 75.947 268.439 76.0782 268.7 76.2094C269.086 76.3989 269.493 76.552 269.878 76.7488C271.055 77.3392 271.44 78.0171 271.164 78.9793C270.808 80.2039 269.812 80.9037 268.613 80.7579C267.923 80.6704 267.29 80.2549 266.556 80.3789C266.353 80.4153 266.316 80.2039 266.309 80.0436C266.302 79.7957 266.309 79.5406 266.309 79.2272L266.295 79.2126Z" fill="white"/>
<path d="M368.079 79.2049C368.167 78.906 367.854 78.352 368.21 78.2573C368.574 78.1552 368.646 78.7457 368.799 79.0445C369.199 79.8099 369.773 80.2837 370.667 80.3056C371.219 80.3128 371.677 80.1306 371.859 79.5912C372.048 79.0372 371.837 78.5634 371.357 78.2208C370.798 77.8199 370.18 77.5429 369.562 77.2514C368.537 76.7776 368.079 75.9393 368.363 75.0281C368.683 73.9858 369.729 73.3516 370.805 73.563C371.248 73.6505 371.692 73.7598 372.12 73.891C372.629 74.0441 372.993 75.1739 372.702 75.655C372.535 75.932 372.404 75.7789 372.302 75.6113C372.142 75.3634 372.019 75.0937 371.866 74.8386C371.437 74.1243 370.819 73.8691 370.02 74.0878C369.62 74.1972 369.322 74.4231 369.257 74.8605C369.191 75.276 369.388 75.5748 369.736 75.7571C370.303 76.0486 370.878 76.3183 371.452 76.5807C372.724 77.1639 373.211 78.0678 372.833 79.1611C372.418 80.3784 371.299 80.9616 370.013 80.6409C369.489 80.5097 368.981 80.2837 368.414 80.3566C368.152 80.393 368.043 80.2545 368.058 79.9921C368.072 79.7443 368.058 79.4892 368.058 79.1976L368.079 79.2049Z" fill="white"/>
<path d="M363.377 77.886C363.377 78.2942 363.377 78.7024 363.377 79.1179C363.377 79.5407 363.442 79.9343 363.798 80.2258C363.9 80.3133 364.016 80.4081 363.951 80.5684C363.9 80.6924 363.776 80.7069 363.66 80.6924C362.984 80.6122 362.301 80.5976 361.625 80.6924C361.48 80.7142 361.342 80.6705 361.298 80.5101C361.262 80.3789 361.363 80.2987 361.472 80.2477C362.076 79.9634 362.119 79.4313 362.098 78.8555C362.054 77.6527 362.01 76.4427 361.981 75.24C361.967 74.7953 361.858 74.4382 361.407 74.2559C361.247 74.1903 361.036 74.0956 361.109 73.8696C361.167 73.6801 361.378 73.7384 361.523 73.7311C361.821 73.7238 362.119 73.7457 362.41 73.7165C362.992 73.6582 363.348 73.8259 363.289 74.4892C363.275 74.6423 363.253 74.8464 363.413 74.9266C363.638 75.0359 363.718 74.7953 363.835 74.6787C364.358 74.183 364.823 73.5926 365.681 73.7092C366.32 73.7967 366.786 74.3507 366.669 74.9411C366.618 75.2108 366.466 75.3931 366.204 75.4732C365.913 75.5607 365.739 75.4149 365.572 75.1963C365.027 74.4746 364.707 74.4528 364.06 75.0651C363.667 75.4368 363.442 75.9106 363.42 76.4573C363.406 76.9384 363.42 77.4122 363.42 77.8933C363.413 77.8933 363.399 77.8933 363.391 77.8933L363.377 77.886Z" fill="white"/>
<path d="M178.429 74.132C179.461 73.5052 180.457 72.7835 180.689 71.4277C181.045 71.9671 180.914 72.5065 180.835 73.0168C180.747 73.5999 180.973 73.7676 181.496 73.7093C181.787 73.6728 182.085 73.6218 182.375 73.6218C182.63 73.6218 182.993 73.5562 182.986 73.9644C182.979 74.3143 182.659 74.3362 182.375 74.358C182.085 74.3726 181.787 74.4382 181.496 74.4382C181.031 74.4382 180.82 74.686 180.82 75.1015C180.798 76.3771 180.762 77.6528 180.82 78.9211C180.849 79.6937 181.518 80.0363 182.39 79.8541C182.637 79.8031 182.986 79.5334 183.109 79.8541C183.233 80.1821 182.811 80.3133 182.564 80.4445C181.3 81.1224 179.701 80.8965 179.584 78.8628C179.512 77.6309 179.613 76.4063 179.664 75.189C179.693 74.4965 179.512 74.2705 178.858 74.3434C178.734 74.358 178.581 74.3799 178.429 74.132Z" fill="white"/>
<path d="M256.955 80.6117C256.664 80.6335 256.279 80.6554 255.894 80.6919C255.727 80.7064 255.559 80.7137 255.494 80.5315C255.443 80.3711 255.574 80.2837 255.69 80.2108C256.134 79.9338 256.221 79.5183 256.214 79.0372C256.192 77.9001 256.214 76.7629 256.185 75.6258C256.17 75.0573 256.25 74.3939 255.436 74.2263C255.327 74.2044 255.247 74.0951 255.261 73.9639C255.276 73.7889 255.414 73.7452 255.552 73.7452C256.025 73.7233 256.504 73.7015 256.977 73.7088C257.486 73.7088 257.333 74.1315 257.384 74.4158C257.42 74.5907 257.391 74.8313 257.566 74.9042C257.769 74.9917 257.878 74.7584 257.98 74.6272C258.271 74.2627 258.648 74.0076 259.063 73.8254C259.608 73.5848 260.131 73.6796 260.56 74.1169C260.843 74.4012 260.945 74.722 260.764 75.1083C260.538 75.5967 260.291 75.6331 259.891 75.2687C259.579 74.9844 259.404 74.3867 258.83 74.6199C258.198 74.875 257.682 75.3197 257.58 76.034C257.413 77.2076 257.493 78.3885 257.522 79.5693C257.522 79.8609 257.733 80.065 257.973 80.2108C258.089 80.2837 258.227 80.3638 258.183 80.5242C258.125 80.721 257.943 80.6846 257.784 80.67C257.536 80.6481 257.289 80.6335 256.948 80.6117H256.955Z" fill="white"/>
<path d="M349.233 79.1176C349.865 78.0096 350.301 76.9964 350.636 75.9468C350.832 75.3345 351.101 74.7003 350.701 74.037C350.57 73.8183 350.796 73.7162 350.992 73.7162C351.421 73.7089 351.857 73.7162 352.286 73.7162C352.395 73.7162 352.533 73.7162 352.562 73.8547C352.598 73.9859 352.489 74.0588 352.395 74.1171C351.639 74.5691 351.341 75.3053 351.05 76.0925C350.541 77.4775 349.916 78.8187 349.262 80.1381C349.167 80.3203 349.117 80.5463 348.862 80.5317C348.637 80.5171 348.615 80.2984 348.542 80.1381C347.866 78.6511 347.19 77.1568 346.5 75.677C346.231 75.1012 345.955 74.5253 345.417 74.1317C345.337 74.0734 345.235 73.9495 345.243 73.8693C345.264 73.7017 345.439 73.709 345.57 73.709C346.275 73.7017 346.972 73.6871 347.677 73.6944C348.084 73.6944 348.019 73.8985 347.83 74.1171C347.619 74.365 347.409 74.5764 347.525 74.9554C347.946 76.3477 348.666 77.6014 349.226 79.1103L349.233 79.1176Z" fill="white"/>
<path d="M265.146 80.4442C264.979 80.6702 264.79 80.641 264.615 80.6337C263.801 80.6046 262.98 80.5535 262.166 80.6702C262.006 80.692 261.817 80.7212 261.781 80.5098C261.752 80.3495 261.912 80.2766 262.042 80.2474C262.704 80.1162 262.791 79.6424 262.791 79.0665C262.798 77.8347 262.842 76.6101 262.878 75.3855C262.893 74.8169 262.777 74.3431 262.122 74.1973C261.97 74.1609 261.788 74.088 261.832 73.8839C261.875 73.6798 262.086 73.7381 262.231 73.7162C262.413 73.6944 262.595 73.7017 262.777 73.6798C264.027 73.534 264.056 73.5632 264.056 74.7877C264.056 76.0415 264.056 77.2953 264.056 78.5417C264.056 79.4359 264.419 80.0652 265.146 80.4296V80.4442Z" fill="white"/>
<path d="M284.596 80.8301C283.586 80.524 282.626 80.5823 281.66 80.6843C281.485 80.6989 281.318 80.6989 281.282 80.5021C281.245 80.2907 281.449 80.2397 281.587 80.2032C282.147 80.0647 282.248 79.6711 282.241 79.1609C282.226 77.8853 282.241 76.6096 282.234 75.334C282.234 74.8092 282.139 74.3281 281.529 74.1532C281.398 74.1167 281.26 74.0438 281.289 73.8762C281.318 73.7085 281.492 73.7158 281.616 73.6866C281.747 73.6502 281.885 73.6356 282.016 73.6283C283.353 73.5117 283.411 73.57 283.411 74.8748C283.411 76.2816 283.426 77.6957 283.397 79.1026C283.382 79.7076 283.528 80.1231 284.153 80.2834C284.385 80.3417 284.523 80.5094 284.589 80.8301H284.596Z" fill="white"/>
<path d="M186.242 76.8434C186.242 77.6161 186.264 78.3887 186.242 79.1614C186.22 79.7445 186.453 80.1163 187.013 80.2766C187.187 80.3277 187.42 80.3714 187.361 80.6047C187.296 80.8525 187.056 80.7432 186.896 80.7067C186.111 80.5245 185.319 80.5974 184.527 80.6411C184.367 80.6484 184.178 80.6921 184.12 80.4953C184.062 80.2839 184.272 80.2256 184.411 80.1965C185.006 80.0507 185.086 79.6352 185.072 79.1031C185.05 77.8275 185.057 76.5518 185.072 75.2835C185.072 74.7951 185.021 74.3796 184.52 74.1464C184.403 74.0954 184.258 74.0079 184.301 73.8475C184.345 73.6799 184.52 73.7236 184.643 73.709C184.665 73.709 184.687 73.709 184.709 73.709C186.54 73.7163 186.206 73.5487 186.242 75.145C186.257 75.7136 186.242 76.2821 186.242 76.8507V76.8434Z" fill="white"/>
<path d="M263.903 70.502C263.896 70.9904 263.685 71.2455 263.198 71.2164C262.733 71.1945 262.297 71.0633 262.282 70.5166C262.275 70.0209 262.609 69.7075 263.104 69.7002C263.605 69.7002 263.881 69.9991 263.903 70.4947V70.502Z" fill="white"/>
<path d="M283.288 70.4798C283.302 70.9682 283.07 71.216 282.604 71.2233C282.096 71.2379 281.776 70.9755 281.754 70.4652C281.739 70.0206 282.001 69.7217 282.452 69.7144C282.939 69.6999 283.244 69.9696 283.288 70.4798Z" fill="white"/>
<path d="M186.089 70.4797C186.06 70.9462 185.813 71.2305 185.37 71.2378C184.912 71.245 184.672 70.9097 184.636 70.4942C184.592 70.0496 184.854 69.7216 185.297 69.707C185.777 69.6851 186.002 70.0423 186.089 70.4797Z" fill="white"/>
</svg>
