<svg width="70" height="70" viewBox="0 0 70 70" fill="none" xmlns="http://www.w3.org/2000/svg">
<g clip-path="url(#clip0_1_1214)">
<path opacity="0.971" fill-rule="evenodd" clip-rule="evenodd" d="M31.7871 -0.0683594C33.8834 -0.0683594 35.9799 -0.0683594 38.0762 -0.0683594C51.8671 1.68805 61.6425 8.88858 67.4023 21.5332C68.7008 24.8581 69.5438 28.276 69.9316 31.7871C69.9316 33.8379 69.9316 35.8887 69.9316 37.9395C69.3103 44.1556 67.2138 49.8295 63.6426 54.9609C62.3666 55.7812 61.0904 55.7812 59.8145 54.9609C59.0349 54.0798 58.7841 53.0544 59.0625 51.8848C64.9288 42.9287 65.9314 33.4496 62.0703 23.4473C57.6484 13.8313 50.2429 7.97517 39.8535 5.87891C28.8526 4.41078 19.6696 7.80596 12.3047 16.0645C5.14247 25.3159 3.63856 35.4331 7.79297 46.416C13.2305 57.7921 22.2767 63.8077 34.9316 64.4629C40.6201 64.3058 45.9066 62.7792 50.791 59.8828C53.4912 59.6207 54.6533 60.8284 54.2773 63.5059C54.0993 64.0218 53.8031 64.4548 53.3887 64.8047C48.6142 67.6799 43.4645 69.3889 37.9395 69.9316C35.8887 69.9316 33.8379 69.9316 31.7871 69.9316C19.6283 68.4996 10.4454 62.5297 4.23828 52.0215C1.87409 47.6417 0.438538 42.9933 -0.0683594 38.0762C-0.0683594 35.9799 -0.0683594 33.8834 -0.0683594 31.7871C1.62704 18.4362 8.50855 8.79759 20.5762 2.87109C24.1845 1.33122 27.9214 0.351403 31.7871 -0.0683594Z" fill="#0C3944"/>
<path opacity="0.991" fill-rule="evenodd" clip-rule="evenodd" d="M33.9746 19.8928C35.659 19.5615 36.8666 20.1539 37.5976 21.6702C37.666 25.179 37.6888 28.6881 37.666 32.1975C41.1754 32.1747 44.6844 32.1975 48.1933 32.2659C49.9986 33.1794 50.4771 34.5694 49.6289 36.4358C49.274 36.9676 48.7954 37.3549 48.1933 37.5979C44.6844 37.6663 41.1754 37.6891 37.666 37.6663C37.6888 41.1757 37.666 44.6847 37.5976 48.1936C36.6841 49.9988 35.2941 50.4773 33.4277 49.6291C32.8959 49.2742 32.5085 48.7957 32.2656 48.1936C32.1972 44.6847 32.1744 41.1757 32.1972 37.6663C28.6878 37.6891 25.1788 37.6663 21.6699 37.5979C19.8647 36.6843 19.3861 35.2943 20.2343 33.428C20.5893 32.8961 21.0678 32.5088 21.6699 32.2659C25.1788 32.1975 28.6878 32.1747 32.1972 32.1975C32.1744 28.6881 32.1972 25.179 32.2656 21.6702C32.5873 20.8246 33.157 20.2322 33.9746 19.8928Z" fill="#0C3944"/>
</g>
<defs>
<clipPath id="clip0_1_1214">
<rect width="70" height="70" fill="white"/>
</clipPath>
</defs>
</svg>
